<svg width="42" height="15" viewBox="0 0 42 15" fill="none" xmlns="http://www.w3.org/2000/svg">
<path d="M37 5C36.4477 5 36 5.44772 36 6C36 6.55228 36.4477 7 37 7V6V5ZM20 11H21V8H20H19V11H20ZM18 6V5H16V6V7H18V6ZM16 11H17V1H16H15V11H16ZM23 8H22V11H23H24V8H23ZM27 11H28V8H27H26V11H27ZM37 6V7H39V6V5H37V6ZM37 11H38V10H37H36V11H37ZM41 8H40V9H41H42V8H41ZM41 9H40V11H41H42V9H41ZM38 9V10H41V9V8H38V9ZM34 11H35V8H34H33V11H34ZM32 6V5H30V6V7H32V6ZM30 11H31V6H30H29V11H30ZM30 6H31V1H30H29V6H30ZM34 8H35C35 6.34315 33.6569 5 32 5V6V7C32.5523 7 33 7.44772 33 8H34ZM32 13V14C33.6569 14 35 12.6569 35 11H34H33C33 11.5523 32.5523 12 32 12V13ZM32 13V12C31.4477 12 31 11.5523 31 11H30H29C29 12.6569 30.3431 14 32 14V13ZM39 6V7C39.5523 7 40 7.44772 40 8H41H42C42 6.34315 40.6569 5 39 5V6ZM27 8H28C28 6.34315 26.6569 5 25 5V6V7C25.5523 7 26 7.44772 26 8H27ZM25 13V14C26.6569 14 28 12.6569 28 11H27H26C26 11.5523 25.5523 12 25 12V13ZM37 10H38V9V8C36.8954 8 36 8.89543 36 10H37ZM20 8H21C21 6.34315 19.6569 5 18 5V6V7C18.5523 7 19 7.44772 19 8H20ZM23 11H22C22 12.6569 23.3431 14 25 14V13V12C24.4477 12 24 11.5523 24 11H23ZM39 13V12C38.4477 12 38 11.5523 38 11H37H36C36 12.6569 37.3431 14 39 14V13ZM18 13V14C19.6569 14 21 12.6569 21 11H20H19C19 11.5523 18.5523 12 18 12V13ZM23 8H24C24 7.44772 24.4477 7 25 7V6V5C23.3431 5 22 6.34315 22 8H23ZM39 13V14C40.6569 14 42 12.6569 42 11H41H40C40 11.5523 39.5523 12 39 12V13ZM18 13V12C17.4477 12 17 11.5523 17 11H16H15C15 12.6569 16.3431 14 18 14V13Z" fill="#FFA800"/>
<path d="M2 5L2.78101 11.2481C2.90612 12.2489 3.75692 13 4.76556 13H8.23444C9.24308 13 10.0939 12.2489 10.219 11.2481L11 5M0 5H7M13 5H7M7 5L8 1" stroke="#FFA800" stroke-width="2"/>
<path d="M8.5 8C8.5 8.55228 8.05228 9 7.5 9C6.94772 9 6.5 8.55228 6.5 8C6.5 7.44772 6.94772 7 7.5 7C8.05228 7 8.5 7.44772 8.5 8Z" fill="#FFA800"/>
<path d="M37 5C36.4477 5 36 5.44772 36 6C36 6.55228 36.4477 7 37 7V6V5ZM20 11H21V8H20H19V11H20ZM18 6V5H16V6V7H18V6ZM16 11H17V1H16H15V11H16ZM23 8H22V11H23H24V8H23ZM27 11H28V8H27H26V11H27ZM37 6V7H39V6V5H37V6ZM37 11H38V10H37H36V11H37ZM41 8H40V9H41H42V8H41ZM41 9H40V11H41H42V9H41ZM38 9V10H41V9V8H38V9ZM34 11H35V8H34H33V11H34ZM32 6V5H30V6V7H32V6ZM30 11H31V6H30H29V11H30ZM30 6H31V1H30H29V6H30ZM34 8H35C35 6.34315 33.6569 5 32 5V6V7C32.5523 7 33 7.44772 33 8H34ZM32 13V14C33.6569 14 35 12.6569 35 11H34H33C33 11.5523 32.5523 12 32 12V13ZM32 13V12C31.4477 12 31 11.5523 31 11H30H29C29 12.6569 30.3431 14 32 14V13ZM39 6V7C39.5523 7 40 7.44772 40 8H41H42C42 6.34315 40.6569 5 39 5V6ZM27 8H28C28 6.34315 26.6569 5 25 5V6V7C25.5523 7 26 7.44772 26 8H27ZM25 13V14C26.6569 14 28 12.6569 28 11H27H26C26 11.5523 25.5523 12 25 12V13ZM37 10H38V9V8C36.8954 8 36 8.89543 36 10H37ZM20 8H21C21 6.34315 19.6569 5 18 5V6V7C18.5523 7 19 7.44772 19 8H20ZM23 11H22C22 12.6569 23.3431 14 25 14V13V12C24.4477 12 24 11.5523 24 11H23ZM39 13V12C38.4477 12 38 11.5523 38 11H37H36C36 12.6569 37.3431 14 39 14V13ZM18 13V14C19.6569 14 21 12.6569 21 11H20H19C19 11.5523 18.5523 12 18 12V13ZM23 8H24C24 7.44772 24.4477 7 25 7V6V5C23.3431 5 22 6.34315 22 8H23ZM39 13V14C40.6569 14 42 12.6569 42 11H41H40C40 11.5523 39.5523 12 39 12V13ZM18 13V12C17.4477 12 17 11.5523 17 11H16H15C15 12.6569 16.3431 14 18 14V13Z" fill="#EBC186"/>
<path d="M2 5L2.78101 11.2481C2.90612 12.2489 3.75692 13 4.76556 13H8.23444C9.24308 13 10.0939 12.2489 10.219 11.2481L11 5M0 5H7M13 5H7M7 5L8 1" stroke="#EBC186" stroke-width="2"/>
<path d="M8.5 8C8.5 8.55228 8.05228 9 7.5 9C6.94772 9 6.5 8.55228 6.5 8C6.5 7.44772 6.94772 7 7.5 7C8.05228 7 8.5 7.44772 8.5 8Z" fill="#EBC186"/>
</svg>
