<svg width="91" height="14" viewBox="0 0 91 14" fill="none" xmlns="http://www.w3.org/2000/svg">
<path d="M14 5.00002L18 7.00002L14 9.00002L12 7.00002L14 5.00002Z" fill="#C7C1BC"/>
<path d="M12.7319 9.46412L12.9999 13.9282L9.26783 11.4641L9.99988 8.73207L12.7319 9.46412Z" fill="#C7C1BC"/>
<path d="M8.73193 11.464L4.99988 13.9281L5.26783 9.46403L7.99988 8.73198L8.73193 11.464Z" fill="#C7C1BC"/>
<path d="M4 5.00002L0 7.00002L4 9.00002L6 7.00002L4 5.00002Z" fill="#C7C1BC"/>
<path d="M8.73193 2.53591L4.99988 0.0718077L5.26783 4.53591L7.99988 5.26796L8.73193 2.53591Z" fill="#C7C1BC"/>
<path d="M12.7319 4.53582L12.9999 0.0717163L9.26783 2.53582L9.99988 5.26787L12.7319 4.53582Z" fill="#C7C1BC"/>
<path d="M24.5 3.5H24L24.5 4V3.5ZM24.5 0.5V0L24 0.5H24.5ZM29.5 0.5V0L29 0.5H29.5ZM32.5 0.5H33L32.5 0V0.5ZM34.5 0.5V0L34 0.5H34.5ZM37.5 0.5H38L37.5 0V0.5ZM21 4H21.5V0.5H21H20.5V4H21ZM19 0.5V1H23V0.5V0H19V0.5ZM28 3.5V3H24.5V3.5V4H28V3.5ZM24.5 0.5V1H28V0.5V0H24.5V0.5ZM29.5 0.5V1H32.5V0.5V0H29.5V0.5ZM34.5 4H35V0.5H34.5H34V4H34.5ZM34.5 0.5V1H36V0.5V0H34.5V0.5ZM36 0.5V1H37.5V0.5V0H36V0.5ZM37.5 0.5H37V4H37.5H38V0.5H37.5ZM29.5 4H30V2H29.5H29V4H29.5ZM29.5 2H30V0.5H29.5H29V2H29.5ZM32.5 0.5H32V2H32.5H33V0.5H32.5ZM32.5 2H32V4H32.5H33V2H32.5ZM29.5 2V2.5H32.5V2V1.5H29.5V2ZM24.5 3.5H25V2H24.5H24V3.5H24.5ZM24.5 2H25V0.5H24.5H24V2H24.5ZM24.5 2V2.5H27V2V1.5H24.5V2ZM36 0.5H35.5V2.5H36H36.5V0.5H36Z" fill="#C7C1BC"/>
<path d="M20 14V9M25 6H20V9M20 9H25M34 14V9M34 9V6H39.5V9H36M34 9H36M36 9L38 13H41M48 13H43V9.5M48 6H43V9.5M43 9.5H46.5M29 13V6M50 5V13H53M56 5V13H53M53 13V8.5M70 9H68M70 9L72 13H75M70 9H74V6H68V9M68 14V9M77 14V9M77 5V9M77 9H80M80 9H83V5M80 9L81 13H84M85 13H90V9H86V6H91M26 6H32M26 13H32M59 6V13H65V6H59Z" stroke="#C7C1BC" stroke-width="2" stroke-linejoin="bevel"/>
</svg>
